<svg t="1637252126126" class="icon" viewBox="0 0 1024 1024" version="1.1" xmlns="http://www.w3.org/2000/svg" p-id="3433" width="200" height="200"><path d="M704.4 890.5h-80.3c-66.5 0-121-54.5-121-121V425.4c0-66.5 54.4-121 121-121h80.3c66.5 0 121 54.5 121 121v344.1c0 66.6-54.5 121-121 121z" fill="#1afa29" p-id="3434" data-spm-anchor-id="a313x.7781069.0.i1" class="selected"></path><path d="M246.4 188.5h-50.9c-3.3 0-6-2.7-6-6v-58h62.9v58c0 3.3-2.7 6-6 6z" fill="#04A9F3" p-id="3435"></path><path d="M708.7 925.1h-89.2c-41 0-79.6-16.1-108.8-45.2-29.2-29.2-45.2-67.8-45.2-108.8v-348c0-41 16.1-79.6 45.2-108.8 29.2-29.2 67.8-45.2 108.8-45.2h89.2c41 0 79.6 16.1 108.8 45.2 29.2 29.2 45.2 67.8 45.2 108.8v27.1c0 5.5-4.5 10-10 10s-10-4.5-10-10v-27.1c0-35.6-14-69.2-39.4-94.6s-59-39.4-94.6-39.4h-89.2c-35.6 0-69.2 14-94.6 39.4s-39.4 59-39.4 94.6v348c0 35.6 14 69.2 39.4 94.6s59 39.4 94.6 39.4h89.2c35.6 0 69.2-14 94.6-39.4s39.4-59 39.4-94.6V506.4c0-5.5 4.5-10 10-10s10 4.5 10 10v264.7c0 41-16.1 79.6-45.2 108.8-29.2 29.2-67.8 45.2-108.8 45.2z" fill="" p-id="3436"></path><path d="M664.1 341.5c-5.5 0-10 4.5-10 10v108.7c0 5.5 4.5 10 10 10s10-4.5 10-10V351.5c0-5.5-4.4-10-10-10z" fill="" p-id="3437"></path><path d="M689.1 214h-15v-83.1c0-19.3-15.7-35-35-35H381.9c-19.3 0-35 15.7-35 35V889.3c0 8.3-6.7 15-15 15l-86.5 1.1c-8.2 0-14.9-6.7-14.9-15V217.8h15c19.3 0 35-15.7 35-35V95.9h-120v86.8c0 19.3 15.7 35 35 35h15v672.6c0 19.3 15.7 35 35 35h0.1l86.5-1.1c19.3 0 34.9-15.7 34.9-35V130.9c0-8.3 6.7-15 15-15h257.2c8.3 0 15 6.7 15 15V214h-15c-19.3 0-35 15.7-35 35v6c0 5.5 4.5 10 10 10s10-4.5 10-10v-6c0-8.3 6.7-15 15-15h50c8.3 0 15 6.7 15 15v6c0 5.5 4.5 10 10 10s10-4.5 10-10v-6c-0.1-19.3-15.8-35-35.1-35z m-493.7-16.2c-8.3 0-15-6.7-15-15v-9.5h28.9c5.5 0 10-4.5 10-10s-4.5-10-10-10h-28.9V116h80v37.3h-8.6c-5.5 0-10 4.5-10 10s4.5 10 10 10h8.6v9.5c0 8.3-6.7 15-15 15h-50z" fill="" p-id="3438"></path><path d="M689 258h-49.5c-3.8 0-6.8-3.1-6.8-6.8 0-3.8 3.1-6.8 6.8-6.8H689c3.8 0 6.8 3.1 6.8 6.8 0.1 3.7-3 6.8-6.8 6.8z" fill="#04A9F3" p-id="3439"></path></svg>