<svg t="1632678505724" class="icon" viewBox="0 0 1024 1024" version="1.1" xmlns="http://www.w3.org/2000/svg" p-id="3090" width="200" height="200"><path d="M155.0848 507.3408v7.0656c0 14.8992 12.032 26.9824 26.9312 26.9824h31.8976v274.8928c0 47.7184 38.7584 86.528 86.3744 86.528h480.3072c47.616 0 86.3744-38.8096 86.3744-86.528v-300.4928s39.2704-1.3824 58.7776-1.3824v-7.0656H155.0848z" fill="#FEC963" p-id="3091"></path><path d="M880.9984 319.1808h-234.7008V206.1312c0-30.976-25.1392-56.1664-56.064-56.1664H490.5984c-30.9248 0-56.064 25.1904-56.064 56.1664v113.0496H235.6736c-44.4416 0-80.5888 36.1984-80.5888 80.7424v107.4176h770.6624V399.9232c0-44.4928-0.3072-80.7424-44.7488-80.7424zM402.8416 655.8208c-19.8144 0-35.84 16.0256-35.84 35.84v154.5216c0 19.8144 16.0256 35.84 35.84 35.84s35.84-16.0256 35.84-35.84v-154.5216c0-19.8144-16.0256-35.84-35.84-35.84zM632.576 655.8208c-19.8144 0-35.84 16.0256-35.84 35.84v154.5216c0 19.8144 16.0256 35.84 35.84 35.84s35.84-16.0256 35.84-35.84v-154.5216c0-19.8144-16.0768-35.84-35.84-35.84z" fill="#9bc6fc" p-id="3092"></path><path d="M872.7552 282.1632h-244.48V139.5712c0-31.744-25.8048-57.5488-57.5488-57.5488H452.6592c-31.744 0-57.5488 25.8048-57.5488 57.5488v142.592H150.6304c-47.7696 0-86.6304 38.8608-86.6304 86.6304v135.424a23.04 23.04 0 0 0 23.04 23.04h46.6432v310.1184c0 50.1248 40.7552 90.88 90.88 90.88h574.3104c50.1248 0 90.88-40.7552 90.88-90.88v-310.1184h46.6432a23.04 23.04 0 0 0 23.04-23.04V368.7936c-0.0512-47.7696-38.912-86.6304-86.6816-86.6304z m-29.0816 555.2128c0 24.7296-20.1216 44.8-44.8 44.8H646.656V675.84c0-12.7488-10.2912-23.04-23.04-23.04s-23.04 10.2912-23.04 23.04v206.336H418.8672V675.84c0-12.7488-10.2912-23.04-23.04-23.04s-23.04 10.2912-23.04 23.04v206.336H224.512c-24.7296 0-44.8-20.1216-44.8-44.8v-310.1184h663.9104v310.1184z m69.632-356.1984h-41.8304c-1.536-0.3072-3.1232-0.512-4.8128-0.512H156.672c-1.6384 0-3.2256 0.2048-4.8128 0.512h-41.8304V368.7936c0-22.3744 18.176-40.5504 40.5504-40.5504h267.52c12.7488 0 23.04-10.2912 23.04-23.04V139.5712c0-6.3488 5.1712-11.4688 11.4688-11.4688h118.016c6.3488 0 11.4688 5.1712 11.4688 11.4688v165.632c0 12.7488 10.2912 23.04 23.04 23.04h267.52c22.3744 0 40.5504 18.176 40.5504 40.5504v112.384z" fill="#474747" p-id="3093"></path></svg>