<svg t="1636680048860" class="icon" viewBox="0 0 1024 1024" version="1.1" xmlns="http://www.w3.org/2000/svg" p-id="22353" width="200" height="200"><path d="M1009.362794 219.00929L782.388985 11.010784a53.27681 53.27681 0 0 0-35.031327-10.94729H326.98173A58.385546 58.385546 0 0 0 291.950402 11.740603a47.438256 47.438256 0 0 0-20.434941 32.11205v61.304823H686.052835l255.436762 230.622905v524.010272h33.571689a51.087352 51.087352 0 0 0 33.571688-16.785844A52.546991 52.546991 0 0 0 1021.769722 802.864746V252.580979a35.761147 35.761147 0 0 0-12.406928-33.571689z" fill="#0088E9" p-id="22354"></path><path d="M841.50435 310.966525L729.841994 205.142723l-56.925907-52.546991a51.817172 51.817172 0 0 0-35.761147-11.677109H214.589554a60.575004 60.575004 0 0 0-38.680424 11.677109 47.438256 47.438256 0 0 0-17.515663 32.11205V408.762313L260.568171 510.937018V239.444231H583.87813V357.674961a97.06597 97.06597 0 0 0 30.652412 67.873197 108.743079 108.743079 0 0 0 72.981932 30.652411h123.339465v446.649424H688.242293a35.761147 35.761147 0 0 1 0 14.596386 137.206032 137.206032 0 0 1 9.487651 53.276811 202.159952 202.159952 0 0 1 0 29.922592h162.749708a48.168075 48.168075 0 0 0 33.571689-16.785845 49.627714 49.627714 0 0 0 12.406929-36.490966v-547.364489a46.708436 46.708436 0 0 0-10.217471-35.031328l-54.736449-54.736449zM683.863377 392.706288A42.329521 42.329521 0 0 1 656.860062 381.758999a36.490966 36.490966 0 0 1-11.677109-24.084038V227.037303l179.535553 165.668985z" fill="#666666" p-id="22355"></path><path d="M572.201021 802.864746a125.528923 125.528923 0 0 0-48.168075-18.975302 158.370792 158.370792 0 0 0-26.273496 0 154.721696 154.721696 0 0 0-32.11205 0H452.510653l-28.462954-28.462954-43.05934-43.05934 207.998506-205.809048A46.708436 46.708436 0 0 0 583.87813 437.955086a51.087352 51.087352 0 0 0-35.031327-13.866567 49.627714 49.627714 0 0 0-34.301508 13.866567l-204.34941 207.998506-43.05934-43.05934L105.846476 437.955086a52.546991 52.546991 0 0 0-37.220786-16.056025 49.627714 49.627714 0 0 0-35.031327 16.056025 47.438256 47.438256 0 0 0 0 68.603016L197.073891 673.686726l43.05934 43.78916-72.981932 72.981932h-13.136748a162.019889 162.019889 0 0 0-32.11205 0 158.370792 158.370792 0 0 0-26.273496 0 120.420188 120.420188 0 0 0-91.227415 77.360848 116.041272 116.041272 0 0 0-4.378916 31.38223 113.121995 113.121995 0 0 0 24.813857 72.981932 122.609646 122.609646 0 0 0 66.413558 45.248798 132.097297 132.097297 0 0 0 32.11205 6.568374 127.718381 127.718381 0 0 0 72.981932-26.273496 125.528923 125.528923 0 0 0 45.248798-64.953919 116.041272 116.041272 0 0 0 0-72.981932l72.981932-72.981932 43.05934 43.789159 27.733134 27.733134a118.960549 118.960549 0 0 0-7.298193 40.140063 115.311453 115.311453 0 0 0 4.378916 30.652411 110.202717 110.202717 0 0 0 44.518978 62.764462 127.718381 127.718381 0 0 0 72.981932 24.084037h32.11205a120.420188 120.420188 0 0 0 66.413559-43.789159 115.311453 115.311453 0 0 0 24.813856-72.981932 121.879826 121.879826 0 0 0-4.378915-32.11205 114.581633 114.581633 0 0 0-43.78916-63.494281z m-448.838882 153.262057a59.845184 59.845184 0 0 1-61.304823-58.385545 61.304823 61.304823 0 0 1 122.609646 0 59.845184 59.845184 0 0 1-61.304823 59.115365z m371.478034 0a59.845184 59.845184 0 0 1-61.304823-58.385545 61.304823 61.304823 0 0 1 122.609646 0 59.845184 59.845184 0 0 1-61.304823 59.115365z" fill="#D88830" p-id="22356"></path></svg>