<svg t="1636707976002" class="icon" viewBox="0 0 1024 1024" version="1.1" xmlns="http://www.w3.org/2000/svg" p-id="34739" width="200" height="200"><path d="M306.4 190.4h172.8v208.8H306.4z" fill="#41DDC8" p-id="34740"></path><path d="M306.4 130.4h172.8v60.8H306.4z" fill="#41DDC8" p-id="34741"></path><path d="M479.2 64.8c0-24.8-20-44.8-44.8-44.8H350.4c-24.8 0-44.8 20-44.8 44.8v65.6h172.8l0.8-65.6z" fill="#A5A7FF" p-id="34742"></path><path d="M548.8 182.4h172.8l-43.2-82.4H592.8z" fill="#41DDC8" p-id="34743"></path><path d="M592.8 100h81.6l-39.2-80z" fill="#B3B3B3" p-id="34744"></path><path d="M548.8 182.4h172.8V400H548.8z" fill="#41DDC8" p-id="34745"></path><path d="M697.6 1004h-368c-47.2 0-84.8-38.4-84.8-84.8v-520h537.6v519.2c0.8 47.2-37.6 85.6-84.8 85.6z" fill="#41DDC8" p-id="34746"></path><path d="M285.6 379.2h-40.8c-11.2 0-20 8.8-20 20v519.2c0 58.4 47.2 105.6 105.6 105.6h368c58.4 0 105.6-47.2 105.6-105.6V399.2c0-11.2-8.8-20-20-20h-40.8V182.4c0-3.2-0.8-6.4-2.4-9.6L653.6 10.4C649.6 4 643.2 0 635.2 0s-14.4 4-17.6 10.4L531.2 172c-1.6 3.2-2.4 6.4-2.4 9.6v196.8h-28.8V64.8c0-36-28.8-64.8-64.8-64.8H350.4c-36 0-64.8 28.8-64.8 64.8v314.4z m319.2-258.4h61.6l21.6 40.8H583.2l21.6-40.8zM635.2 64l8.8 16h-17.6l8.8-16z m-66.4 138.4h132v176.8H568.8V202.4z m-242.4-52h132v20H326.4v-20z m0-85.6c0-13.6 11.2-24 24-24h84c13.6 0 24 11.2 24 24v44.8H326.4V64.8z m0 146.4h132v168H326.4v-168z m436 208.8v499.2c0 35.2-28.8 64.8-64.8 64.8h-368c-35.2 0-64.8-28.8-64.8-64.8V420h497.6z" fill="#603813" p-id="34747"></path><path d="M556.8 448.8H312.8c-11.2 0-20 8.8-20 20s8.8 20 20 20h244c11.2 0 20-8.8 20-20 0.8-11.2-8.8-20-20-20zM632 448.8h-8.8c-11.2 0-20 8.8-20 20s8.8 20 20 20H632c11.2 0 20-8.8 20-20 0.8-11.2-8.8-20-20-20z" fill="#603813" p-id="34748"></path></svg>