<svg t="1637139940864" class="icon" viewBox="0 0 1024 1024" version="1.1" xmlns="http://www.w3.org/2000/svg" p-id="11756" width="30" height="40"><path d="M751.97 112.3l-1.88-1.16 0.36-0.08c-52.86-32.34-121.88-16.25-155.01 36.09l-55.57 88.15-8.1 12.18L244.18 703.8l-1.28 2.08c-1.16 1.88-1.88 3.95-2.08 6.15L221.9 928.52c-0.28 3.19 0.52 6.31 2.32 8.94 4.27 6.27 12.81 7.86 19.08 3.63l186.55-110.26c2.08-1.2 3.75-2.95 4.95-5.03l1-1.56 287.39-456.3 43.03-68.26 20.2-32.02c32.86-52.49 17.53-121.67-34.45-155.36zM547.94 273.62l60.88 38.4-252.58 400.56c-10.3-24.27-34.57-39.6-60.92-38.44l252.62-400.52z m-296.18 631.1l3.87-45.11 4.71 0.88a51.346 51.346 0 0 1 27.03 17.09c1 1.24 2 2.52 2.91 3.87l-38.52 23.27z m161.56-95.73l-99.24 58.56a78.611 78.611 0 0 0-47.07-33.65c-2.99-0.76-5.99-1.32-9.02-1.72l10.02-114.85a36.064 36.064 0 0 1 22.75-15.53c19.48-4.07 38.6 8.38 42.72 27.9 2 9.3 0.32 18.96-4.67 27.07-0.36 0.48-0.68 1-0.92 1.52-3.31 6.35-0.88 14.21 5.51 17.53 0.28 0.16 0.6 0.36 0.88 0.52 6.47 3.47 14.49 1.04 17.96-5.39a35.454 35.454 0 0 1 22.2-15.53c8.94-2 18.28-0.48 26.19 4.15 17.12 10.14 22.83 32.3 12.69 49.42z m27.35-43.47c-10.42-24.43-34.93-39.72-61.44-38.32l252.58-400.53 61.44 38.32-252.58 400.53z m283.24-449.87l-16.61 26.27-145.03-91.5 30.86-48.9 145.23 91.86-14.45 22.27z m39.32-62.63l-10.46 16.73-145.03-91.38L618 161.92c25.27-39.96 78.05-52.06 118.21-27.07 39.95 25.27 52.05 78.05 27.02 118.17z" p-id="11757"></path><path d="M290.29 881.45l-38.52 23.27 3.87-45.11 4.71 0.88a51.346 51.346 0 0 1 27.03 17.09c0.99 1.24 1.99 2.51 2.91 3.87z" fill="#B4B6BC" p-id="11758"></path><path d="M413.19 809.39l-99.55 58.04a78.61 78.61 0 0 0-46.89-33.9c-2.99-0.77-5.98-1.35-9.01-1.76l10.62-114.8a36.02 36.02 0 0 1 22.84-15.41c19.5-3.97 38.56 8.59 42.57 28.13 1.95 9.31 0.22 18.96-4.81 27.04-0.36 0.48-0.68 0.99-0.93 1.51-3.35 6.33-0.95 14.21 5.42 17.55 0.28 0.16 0.6 0.36 0.88 0.52 6.45 3.51 14.49 1.11 17.99-5.29a35.375 35.375 0 0 1 22.28-15.41c8.95-1.95 18.29-0.38 26.17 4.29 17.06 10.23 22.65 32.41 12.42 49.49z" fill="#FFEA8F" p-id="11759"></path><path d="M693.25 364.99L440.67 765.52c-10.42-24.43-34.93-39.72-61.44-38.32l252.58-400.53 61.44 38.32z" fill="#ED8D22" p-id="11760"></path><path d="M608.82 312.02L356.24 712.58c-10.3-24.27-34.57-39.6-60.92-38.44l252.62-400.53 60.88 38.41z" fill="#FFEA8F" p-id="11761"></path><path d="M738.36 293.38l-14.45 22.27-16.61 26.27-145.03-91.5 30.86-48.9z" fill="#80D8FF" p-id="11762"></path><path d="M763.23 253.02l-10.46 16.73-145.03-91.38L618 161.92c25.27-39.96 78.05-52.06 118.21-27.07 39.95 25.27 52.05 78.05 27.02 118.17z" fill="#FD5E7A" p-id="11763"></path></svg>