<svg t="1636634847093" class="icon" viewBox="0 0 1024 1024" version="1.1" xmlns="http://www.w3.org/2000/svg" p-id="4935" width="200" height="200"><path d="M480 896H100.571429a36.571429 36.571429 0 0 1-36.571429-36.571429V202.569143a36.571429 36.571429 0 0 1 36.571429-36.571429h606.866285a36.571429 36.571429 0 0 1 36.571429 36.571429v288.109714h-264.009143v405.284572z" fill="#F5A70D" p-id="4936"></path><path d="M560.091429 268.580571H248.027429a14.628571 14.628571 0 0 1-14.628572-14.628571v-87.771429h62.610286V100.571429a36.571429 36.571429 0 0 1 36.571428-36.571429H475.428571a36.571429 36.571429 0 0 1 36.571429 36.571429v65.609142h62.72v87.771429a14.628571 14.628571 0 0 1-14.628571 14.628571zM343.990857 110.994286v54.857143h119.990857v-54.857143zM923.428571 957.988571H492.580571a36.571429 36.571429 0 0 1-36.571428-36.571428V490.569143a36.571429 36.571429 0 0 1 36.571428-36.571429h310.016a36.571429 36.571429 0 0 1 23.625143 8.667429l120.685715 102.4a36.571429 36.571429 0 0 1 12.946285 27.904v328.521143a36.571429 36.571429 0 0 1-36.425143 36.498285zM503.990857 501.979429v408.027428h408.027429v-261.302857h-128a36.571429 36.571429 0 0 1-36.571429-36.571429v-110.153142z m291.437714 0v98.742857h116.589715z" fill="#727272" p-id="4937"></path><path d="M503.990857 502.016h243.419429v110.153143a36.571429 36.571429 0 0 0 36.571428 36.571428h128v261.302858H503.990857z" fill="#FFFFFF" p-id="4938"></path><path d="M795.428571 600.758857v-98.742857l116.589715 98.742857z" fill="#FFFFFF" p-id="4939"></path></svg>